<?xml version="1.0" encoding="iso-8859-1"?>
<!-- Generator: Adobe Illustrator 19.0.0, SVG Export Plug-In . SVG Version: 6.00 Build 0)  -->
<svg version="1.1" id="Layer_1" xmlns="http://www.w3.org/2000/svg" xmlns:xlink="http://www.w3.org/1999/xlink" x="0px" y="0px"
	viewBox="0 0 503.608 503.608" style="enable-background:new 0 0 503.608 503.608;" xml:space="preserve">
	<g>
		<g>
			<g>
				<path d="M220.689,274.525c3.278,3.278,8.592,3.278,11.87,0l50.361-50.361c0.004-0.004,0.007-0.008,0.011-0.012
				c0.191-0.192,0.373-0.393,0.545-0.603c0.08-0.098,0.15-0.201,0.226-0.302c0.089-0.119,0.181-0.235,0.263-0.358
				c0.08-0.12,0.15-0.244,0.223-0.367c0.067-0.112,0.137-0.222,0.199-0.337c0.067-0.125,0.124-0.254,0.184-0.382
				c0.057-0.12,0.117-0.239,0.168-0.362c0.052-0.125,0.093-0.252,0.139-0.379c0.047-0.132,0.098-0.262,0.139-0.397
				c0.038-0.126,0.066-0.255,0.098-0.383c0.035-0.138,0.073-0.274,0.101-0.414c0.029-0.148,0.047-0.297,0.068-0.446
				c0.017-0.122,0.041-0.242,0.053-0.366c0.054-0.551,0.054-1.106,0-1.657c-0.012-0.124-0.035-0.244-0.053-0.366
				c-0.021-0.149-0.039-0.298-0.068-0.446c-0.028-0.14-0.066-0.276-0.101-0.414c-0.032-0.128-0.06-0.256-0.098-0.383
				c-0.041-0.135-0.091-0.265-0.139-0.397c-0.045-0.127-0.087-0.254-0.139-0.379c-0.051-0.123-0.111-0.242-0.168-0.362
				c-0.06-0.128-0.117-0.257-0.184-0.382c-0.062-0.115-0.132-0.225-0.199-0.337c-0.073-0.123-0.143-0.247-0.223-0.367
				c-0.083-0.123-0.174-0.24-0.263-0.358c-0.075-0.101-0.145-0.204-0.226-0.302c-0.172-0.21-0.354-0.411-0.545-0.603
				c-0.004-0.004-0.007-0.008-0.011-0.012c-0.003-0.003-0.007-0.006-0.011-0.01c-0.192-0.192-0.394-0.374-0.604-0.546
				c-0.098-0.08-0.2-0.15-0.301-0.225c-0.119-0.089-0.235-0.181-0.359-0.264c-0.121-0.081-0.246-0.151-0.369-0.224
				c-0.111-0.067-0.22-0.136-0.335-0.198c-0.126-0.067-0.256-0.125-0.384-0.185c-0.12-0.056-0.237-0.116-0.36-0.167
				c-0.125-0.052-0.253-0.094-0.38-0.139c-0.131-0.047-0.261-0.098-0.395-0.138c-0.127-0.038-0.256-0.066-0.384-0.099
				c-0.137-0.035-0.273-0.073-0.413-0.101c-0.148-0.029-0.298-0.047-0.447-0.068c-0.122-0.017-0.242-0.041-0.365-0.053
				c-0.275-0.027-0.552-0.042-0.828-0.042l0,0h-30.097l36.032-36.032c3.278-3.278,3.278-8.592,0-11.87
				c-3.278-3.278-8.592-3.278-11.87,0l-50.361,50.361c-0.195,0.195-0.38,0.401-0.556,0.615c-0.08,0.097-0.149,0.199-0.223,0.299
				c-0.089,0.119-0.182,0.236-0.265,0.361c-0.08,0.12-0.15,0.244-0.223,0.367c-0.067,0.112-0.137,0.222-0.199,0.337
				c-0.067,0.125-0.123,0.253-0.183,0.381c-0.057,0.121-0.117,0.24-0.169,0.364c-0.051,0.124-0.093,0.25-0.138,0.376
				c-0.048,0.133-0.099,0.263-0.14,0.399c-0.038,0.126-0.066,0.255-0.098,0.382c-0.035,0.138-0.073,0.274-0.101,0.414
				c-0.029,0.148-0.047,0.297-0.068,0.446c-0.017,0.122-0.041,0.242-0.053,0.366c-0.054,0.551-0.054,1.106,0,1.657
				c0.012,0.124,0.035,0.244,0.053,0.366c0.021,0.149,0.039,0.298,0.068,0.446c0.028,0.14,0.066,0.276,0.101,0.414
				c0.032,0.128,0.06,0.256,0.098,0.382c0.041,0.136,0.092,0.266,0.14,0.399c0.045,0.126,0.086,0.252,0.138,0.376
				c0.051,0.124,0.112,0.243,0.169,0.364c0.06,0.127,0.117,0.256,0.183,0.381c0.062,0.115,0.132,0.225,0.199,0.337
				c0.073,0.123,0.143,0.247,0.223,0.367c0.083,0.124,0.176,0.241,0.265,0.361c0.075,0.1,0.144,0.202,0.223,0.299
				c0.351,0.428,0.743,0.82,1.171,1.171c0.097,0.08,0.199,0.149,0.299,0.223c0.119,0.089,0.236,0.182,0.361,0.265
				c0.12,0.08,0.244,0.15,0.367,0.223c0.112,0.067,0.222,0.137,0.337,0.199c0.125,0.067,0.253,0.123,0.381,0.183
				c0.121,0.057,0.24,0.117,0.364,0.169c0.124,0.051,0.25,0.093,0.376,0.138c0.133,0.048,0.263,0.099,0.399,0.14
				c0.126,0.038,0.255,0.066,0.382,0.098c0.138,0.035,0.274,0.073,0.414,0.101c0.148,0.029,0.297,0.047,0.446,0.068
				c0.122,0.017,0.242,0.041,0.366,0.053c0.275,0.027,0.552,0.042,0.828,0.042h30.097l-36.032,36.032
				C217.411,265.933,217.411,271.247,220.689,274.525z" />
				<path d="M386.099,486.82H276.984V386.098c9.27,0,16.787-7.511,16.787-16.787v-33.574h33.574c9.27,0,16.787-7.511,16.787-16.787
				V117.508c0-9.276-7.517-16.787-16.787-16.787h-8.393V25.18c0-13.902-11.278-25.18-25.18-25.18h-83.934
				c-13.902,0-25.18,11.278-25.18,25.18v75.541h-8.393c-9.27,0-16.787,7.511-16.787,16.787v201.443
				c0,9.276,7.517,16.787,16.787,16.787h33.574v33.574c0,9.276,7.517,16.787,16.787,16.787V486.82H117.509
				c-4.636,0-8.393,3.758-8.393,8.393s3.758,8.393,8.393,8.393h117.474c0.011,0,0.022,0.002,0.034,0.002h33.574
				c0.011,0,0.022-0.002,0.034-0.002h117.474c4.636,0,8.393-3.758,8.393-8.393S390.735,486.82,386.099,486.82z M201.443,25.18
				c0-4.631,3.763-8.393,8.393-8.393h83.934c4.631,0,8.393,3.763,8.393,8.393v75.541H201.443V25.18z M176.263,117.508h16.787
				h117.508h16.787v201.443h-41.967H218.23h-41.967V117.508z M276.984,335.738v33.574h-50.361v-33.574H276.984z M243.411,386.1
				h16.787v100.72h-16.787V386.1z" />
			</g>
		</g>
	</g>
	<g></g>
	<g></g>
	<g></g>
	<g></g>
	<g></g>
	<g></g>
	<g></g>
	<g></g>
	<g></g>
	<g></g>
	<g></g>
	<g></g>
	<g></g>
	<g></g>
	<g></g>
</svg>